<?xml version="1.0" encoding="utf-8"?>
<!-- Generator: Adobe Illustrator 23.1.0, SVG Export Plug-In . SVG Version: 6.00 Build 0)  -->
<svg version="1.1" xmlns="http://www.w3.org/2000/svg" xmlns:xlink="http://www.w3.org/1999/xlink" x="0px" y="0px"
	 viewBox="0 0 595.3 841.9" enable-background="new 0 0 595.3 841.9" xml:space="preserve">
<g id="Capa_1">
	<g>
		<polyline fill="none" stroke="#7C6B59" stroke-width="2.8535" stroke-linejoin="round" stroke-miterlimit="10" points="
			279.8,109.5 288.9,132.4 301.7,113.3 		"/>
		<path fill="#97C456" stroke="#7C6B59" stroke-width="5.986" stroke-linejoin="round" stroke-miterlimit="10" d="M290.8,517H353
			c0,0,44.8-158.8,0-317.5c0,0-14.1-67.5-62.2-67.1c-45.2-0.4-62.2,67.1-62.2,67.1c-44.8,158.8,0,317.5,0,317.5S290.8,517,290.8,517
			z"/>
		<path fill="#AECD61" d="M313.8,142c0,0,45.3,10.3,57.3,180.1c0,0,4.6,88.8-20.1,191.3l-13.6,0.1c0,0,36.8-114.4,17.4-240.9
			C354.8,272.6,343.9,189.4,313.8,142z"/>
		<path fill="#799946" d="M277.6,138c0,0-54.6,1-67.7,184.1c0,0-4.6,88.8,20.1,191.3l20.8,0.2c0,0-33.9-111.5-14.5-238
			C236.3,275.6,247.2,177.2,277.6,138z"/>
		<path fill="#97C456" stroke="#7C6B59" stroke-width="5.986" stroke-linejoin="round" stroke-miterlimit="10" d="M374.4,528.4
			l36.6,5.4c0,0,40.3-103.5,27.7-214.7c0,0-2.4-46.9-30.8-50.7c-26.6-4.2-42.5,40-42.5,40C325.2,411.8,337.7,523,337.7,523
			S374.4,528.4,374.4,528.4z"/>
		<path fill="#AECD61" d="M420.7,276.8c0,0,25.8,10.9,18,126.7c0,0-5,60.4-28.5,127.6l-8-1.1c0,0,31.7-74.2,31.3-161.4
			C433.4,368.6,434.3,311.4,420.7,276.8z"/>
		<path fill="#799946" d="M399.7,270.9c0,0-32.3-4.1-56,118.6c0,0-10.5,59.6-4.9,131.1l12.3,1.9c0,0-10.3-78.3,12.2-162.2
			C363.3,360.4,378.4,294.8,399.7,270.9z"/>
		<path fill="#97C456" stroke="#7C6B59" stroke-width="5.986" stroke-linejoin="round" stroke-miterlimit="10" d="M210.3,527
			l46.2-4.1c0,0,21.3-137.4-23.9-268.9c0,0-15.6-56.2-51.2-52.7c-33.6,2.6-41.1,60.9-41.1,60.9c-21.3,137.4,23.9,268.9,23.9,268.9
			S210.3,527,210.3,527z"/>
		<path fill="#AECD61" d="M199.2,208c0,0,34.4,5.8,56.1,148.7c0,0,10.1,74.9-0.5,163.3l-10.1,1c0,0,18.7-99.4-5.3-205.2
			C239.5,315.8,225.1,246.1,199.2,208z"/>
		<path fill="#799946" d="M172,206.9c0,0-40.5,4.4-36.4,160.4c0,0,3.3,75.5,29.3,160.7l15.5-1.2c0,0-33.6-92.2-28.7-200.6
			C151.7,326.2,152.4,242.1,172,206.9z"/>
		<g>
			<polygon fill="#E09B52" stroke="#7C6B59" stroke-width="5.986" stroke-linejoin="round" stroke-miterlimit="10" points="
				287.8,819.5 402.3,819.5 449.4,575.6 287.8,575.6 126.2,575.6 173.3,819.5 			"/>
			<polyline fill="#E09B52" stroke="#7C6B59" stroke-width="5.986" stroke-linejoin="round" stroke-miterlimit="10" points="
				287.8,575.6 479.8,575.6 479.8,496.9 287.8,496.9 95.9,496.9 95.9,575.6 287.8,575.6 			"/>
			<polygon fill="#B0733A" points="130.4,578.7 166.9,578.7 218,816.3 175.9,816.3 			"/>
			<polygon fill="#F7B980" points="446.9,578.6 436.3,578.6 388.6,816.2 399.8,816.2 			"/>
			<polygon fill="#B0733A" points="99.6,499.8 137.2,499.8 152.3,572.7 99.6,572.7 			"/>
			<polygon fill="#F7B980" points="476.1,499.8 461.5,499.8 446.9,572.7 476.1,572.7 			"/>
		</g>
		<polyline fill="none" stroke="#7C6B59" stroke-width="2.8535" stroke-linejoin="round" stroke-miterlimit="10" points="
			310.3,207.6 322.5,228.7 332.5,207.6 		"/>
		<polyline fill="none" stroke="#7C6B59" stroke-width="2.8535" stroke-linejoin="round" stroke-miterlimit="10" points="
			368.5,188.1 356,209.6 378.4,208.3 		"/>
		<polyline fill="none" stroke="#7C6B59" stroke-width="2.8535" stroke-linejoin="round" stroke-miterlimit="10" points="
			379.8,234.2 367.2,255.7 389.6,254.5 		"/>
		<polyline fill="none" stroke="#7C6B59" stroke-width="2.8535" stroke-linejoin="round" stroke-miterlimit="10" points="299,148.6 
			308.1,171.6 321,152.5 		"/>
		<polyline fill="none" stroke="#7C6B59" stroke-width="2.8535" stroke-linejoin="round" stroke-miterlimit="10" points="
			341.6,134.1 337.7,158.5 358.5,148.6 		"/>
		<polyline fill="none" stroke="#7C6B59" stroke-width="2.8535" stroke-linejoin="round" stroke-miterlimit="10" points="
			249.5,166.7 264.1,185.8 271.5,163.5 		"/>
		<polyline fill="none" stroke="#7C6B59" stroke-width="2.8535" stroke-linejoin="round" stroke-miterlimit="10" points="
			207.6,177.3 228.3,187.7 226.3,164.1 		"/>
		<polyline fill="none" stroke="#7C6B59" stroke-width="2.8535" stroke-linejoin="round" stroke-miterlimit="10" points="
			230.1,140.5 252.3,146.9 246,124.1 		"/>
		<polyline fill="none" stroke="#7C6B59" stroke-width="2.8535" stroke-linejoin="round" stroke-miterlimit="10" points="
			260.4,223.9 272.6,245 282.6,223.9 		"/>
		<polyline fill="none" stroke="#7C6B59" stroke-width="2.8535" stroke-linejoin="round" stroke-miterlimit="10" points="
			325.9,264.7 338.1,285.8 348.1,264.7 		"/>
		<polyline fill="none" stroke="#7C6B59" stroke-width="2.8535" stroke-linejoin="round" stroke-miterlimit="10" points="
			142.7,283.8 165,293.6 160.6,270.7 		"/>
		<polyline fill="none" stroke="#7C6B59" stroke-width="2.8535" stroke-linejoin="round" stroke-miterlimit="10" points="
			260.1,308.9 272.3,330 282.3,308.9 		"/>
		<polyline fill="none" stroke="#7C6B59" stroke-width="2.8535" stroke-linejoin="round" stroke-miterlimit="10" points="
			293.4,361.8 305.6,382.9 315.6,361.8 		"/>
		<polyline fill="none" stroke="#7C6B59" stroke-width="2.8535" stroke-linejoin="round" stroke-miterlimit="10" points="
			391.1,284.8 403.3,305.8 413.2,284.8 		"/>
		<polyline fill="none" stroke="#7C6B59" stroke-width="2.8535" stroke-linejoin="round" stroke-miterlimit="10" points="
			356.7,350.1 375,366.2 377.7,343 		"/>
		<polyline fill="none" stroke="#7C6B59" stroke-width="2.8535" stroke-linejoin="round" stroke-miterlimit="10" points="
			378.4,390.3 390.7,411.4 400.6,390.3 		"/>
		<polyline fill="none" stroke="#7C6B59" stroke-width="2.8535" stroke-linejoin="round" stroke-miterlimit="10" points="
			406.7,425.7 418.9,446.8 428.8,425.7 		"/>
		<polyline fill="none" stroke="#7C6B59" stroke-width="2.8535" stroke-linejoin="round" stroke-miterlimit="10" points="
			427.9,335.8 422.5,359.5 444.1,350.9 		"/>
		<polyline fill="none" stroke="#7C6B59" stroke-width="2.8535" stroke-linejoin="round" stroke-miterlimit="10" points="
			360.3,457.5 372.6,478.5 382.5,457.5 		"/>
		<polyline fill="none" stroke="#7C6B59" stroke-width="2.8535" stroke-linejoin="round" stroke-miterlimit="10" points="287.9,441 
			300.2,462.1 310.1,441 		"/>
		<polyline fill="none" stroke="#7C6B59" stroke-width="2.8535" stroke-linejoin="round" stroke-miterlimit="10" points="232.5,468 
			244.7,489.1 254.6,468 		"/>
		<polyline fill="none" stroke="#7C6B59" stroke-width="2.8535" stroke-linejoin="round" stroke-miterlimit="10" points="
			207.2,372.4 219.5,393.4 229.4,372.4 		"/>
		<polyline fill="none" stroke="#7C6B59" stroke-width="2.8535" stroke-linejoin="round" stroke-miterlimit="10" points="
			180.7,222.1 198.9,238.3 201.8,215.2 		"/>
		<polyline fill="none" stroke="#7C6B59" stroke-width="2.8535" stroke-linejoin="round" stroke-miterlimit="10" points="
			171.7,412.2 189.3,429 193,406 		"/>
		<polyline fill="none" stroke="#7C6B59" stroke-width="2.8535" stroke-linejoin="round" stroke-miterlimit="10" points="
			222.5,295.3 227,319.2 243.4,302.7 		"/>
		<polyline fill="none" stroke="#7C6B59" stroke-width="2.8535" stroke-linejoin="round" stroke-miterlimit="10" points="169.3,330 
			181.5,351.1 191.5,330 		"/>
		<polyline fill="none" stroke="#7C6B59" stroke-width="2.8535" stroke-linejoin="round" stroke-miterlimit="10" points="
			152.3,462.1 164.6,483.1 174.5,462.1 		"/>
	</g>
</g>
<g id="Capa_2">
</g>
</svg>
